# xmcd
#
# Track frame offsets:
#	150
#	17097
#	31941
#	45594
#	58848
#	73052
#	87736
#	99722
#	113659
#	129448
#	144279
#	157468
#	172738
#	187018
#	202127
#	216777
#	233702
#	251516
#	267173
#	282744
#	300995
#	315489
#
# Disc length: 4400 seconds
#
# Revision: 0
# Processed by: cddbd v1.4PL0 Copyright (c) Steve Scherf et al.
# Submitted via: audiograbber 1.81.00
#
DISCID=44112e16
DTITLE=Ricchi E Poveri - ALL THE BEST
DYEAR=1900
DGENRE=POP
TTITLE0=La Prima Cosa Bella
TTITLE1=L'amore È Una Cosa Meravigliosa
TTITLE2=Che Sarà
TTITLE3=Come Vorrei
TTITLE4=Sarà Perché Ti Amo
TTITLE5=M'innamoro Di Te
TTITLE6=Questa Sera
TTITLE7=E Penso A Te
TTITLE8=Made In Italy
TTITLE9=Piccolo Amore
TTITLE10=Mamma Maria
TTITLE11=Amarsi Un Pò
TTITLE12=Magnifica Serata (Dal Film "Scusa Se È Poco")
TTITLE13=C'è Che Sto Bene
TTITLE14=Cosa Sei
TTITLE15=Voulez Vous Danser
TTITLE16=Hasta La Vista
TTITLE17=Dimmi Quando
TTITLE18=Se M'innamoro
TTITLE19=Canzone D'amore
TTITLE20=Pubblicità
TTITLE21=Cocco Bello Africa
EXTD=
EXTT0=
EXTT1=
EXTT2=
EXTT3=
EXTT4=
EXTT5=
EXTT6=
EXTT7=
EXTT8=
EXTT9=
EXTT10=
EXTT11=
EXTT12=
EXTT13=
EXTT14=
EXTT15=
EXTT16=
EXTT17=
EXTT18=
EXTT19=
EXTT20=
EXTT21=
PLAYORDER=
